<?xml version="1.0" encoding="utf-8"?>
<svg xmlns="http://www.w3.org/2000/svg" viewBox="0 0 1194 896">
  <defs>
    <style>
      :root { color-scheme: light dark; --pictogram: #00876C; }
      @media (prefers-color-scheme: dark) { :root { --pictogram: #5DDBB6; } }
      .p { fill: var(--pictogram); }
    </style>
  </defs>
  <!-- Pictogram only (colors via CSS variables) -->
  <path class="p" d="M599.5,440.1c-2.2-24.3-14-46.6-32.8-62-31.2-25.8-63.1-26.1-101.3-26.1h-103.6c-9.5,0-21.5-.3-30.9.3v.2c-31.3,2.6-61.4,12.8-82.3,37.4-15.8,18.5-23.4,42.5-21.2,66.7,5,56.9,57.4,87.6,109.8,88.5h133.4c7.9.1,18.4.6,26.2-.2,32.1-3,61.6-13.5,82.7-38.9,15.1-18.5,22.4-42.2,20-65.9ZM492.2,506.9c-5.6.6-18.8.2-24.7.2h-103.7c-27.6,0-50.2,1.8-73.8-16.3-24-18-28.2-52.6-9-75.8,13.9-16.8,32.5-22.7,53.3-24.8h.1c7.7-.9,20-.2,28-.2h103.3c11.5,0,27.2-.7,38.3,1.5,78.3,15.8,69.5,110.5-11.8,115.4Z"/>
  <path class="p" d="M418.9,483.6c-19.5,2.8-37.6-10.7-40.4-30.1-2.9-19.5,10.6-37.6,30.1-40.5s37.7,10.6,40.5,30.1c2.9,19.5-10.7,37.7-30.2,40.5Z"/>
  <path class="p" d="M722,545.3v-38.1l67.3-.3h41.3c27.5,0,52.3.8,73.7-20.4,10.4-10.1,16.2-23.9,16.2-38.3s-6.1-28.4-16.2-38.2c-21.1-20.5-46.6-20.1-73.7-20.1h-190.6c0,.1,0-37.9,0-37.9h.2c0,.1.7.1.7.1h188.2c17.7,0,33.9-.7,51.3,3.1,20.7,4.6,40.1,13.2,55.3,28.3,17.1,17.2,26.7,40.4,26.8,64.7,0,24.4-9.7,47.9-27.1,65-37.5,37.4-89.8,31.8-138.1,31.8"/>
</svg>
<?xml version="1.0" encoding="utf-8"?>
<svg xmlns="http://www.w3.org/2000/svg" viewBox="0 0 1194 896">
  <defs>
    <style>
      :root { color-scheme: light dark; --pictogram: #00876C; --highlight: #F7FAF7; }
      @media (prefers-color-scheme: dark) { :root { --pictogram: #5DDBB6; --highlight: #0E1311; } }
      .b { fill: var(--highlight); }
      .f { fill: var(--pictogram); }
    </style>
  </defs>
  <rect width="1194" height="896" class="b"/>
  <path class="f" d="M330.9,352.3c9.4-.6,21.4-.3,30.9-.3h103.6c38.2,0,70.1.3,101.3,26.1,18.8,15.4,30.6,37.7,32.8,62,2.4,23.7-4.9,47.4-20,65.9-21.1,25.4-50.6,35.9-82.7,38.9-7.8.8-18.3.3-26.2.2h-101.7c-10.6,0-21.1,0-31.7,0-52.4-.9-104.8-31.6-109.8-88.5-2.2-24.2,5.4-48.2,21.2-66.7,20.9-24.6,51-34.8,82.3-37.4h0Z"/>
  <path class="b" d="M334.4,390.2c7.7-.9,20-.2,28-.2h103.3c11.5,0,27.2-.7,38.3,1.5,78.3,15.8,69.5,110.5-11.8,115.4-5.6.6-18.8.2-24.7.2h-103.7c-27.6,0-50.2,1.8-73.8-16.3-24-18-28.2-52.6-9-75.8,13.9-16.8,32.5-22.7,53.3-24.8h.1Z"/>
  <path class="f" d="M408.6,413c19.5-2.9,37.7,10.6,40.5,30.1,2.9,19.5-10.7,37.7-30.2,40.5s-37.6-10.7-40.4-30.1c-2.9-19.5,10.6-37.6,30.1-40.5Z"/>
</svg>
